<?xml version="1.0" standalone="no"?>
<!DOCTYPE svg PUBLIC "-//W3C//DTD SVG 20010904//EN"
 "http://www.w3.org/TR/2001/REC-SVG-20010904/DTD/svg10.dtd">
<svg version="1.0" xmlns="http://www.w3.org/2000/svg"
 width="340.000000pt" height="339.000000pt" viewBox="0 0 340.000000 339.000000"
 preserveAspectRatio="xMidYMid meet">

<g transform="translate(0.000000,339.000000) scale(0.100000,-0.100000)"
fill="#000000" stroke="none">
<path d="M550 2313 c0 -12 19 -27 53 -43 70 -34 90 -71 82 -160 -3 -36 -14
-195 -25 -355 -32 -460 -56 -563 -147 -613 -24 -13 -43 -30 -43 -38 0 -12 34
-14 223 -12 178 2 222 6 222 16 0 8 -18 20 -39 27 -116 40 -156 135 -159 374
-3 182 14 634 24 624 13 -14 426 -914 444 -970 16 -49 20 -53 49 -53 29 0 32
3 48 58 10 31 114 266 232 521 l214 464 6 -74 c3 -41 12 -234 21 -429 19 -450
17 -457 -92 -506 -30 -14 -53 -30 -53 -39 0 -13 31 -15 225 -15 208 0 225 1
225 18 0 11 -16 24 -46 36 -71 29 -81 59 -93 301 -6 110 -18 315 -26 456 -9
169 -11 267 -5 289 13 45 46 78 92 90 28 8 38 16 38 30 0 19 -8 20 -147 20
l-148 0 -17 -70 c-10 -40 -85 -215 -174 -408 -86 -185 -174 -377 -197 -425
-22 -48 -44 -84 -48 -80 -17 18 -399 844 -409 884 -5 24 -12 56 -15 72 l-5 27
-155 0 c-141 0 -155 -2 -155 -17z"/>
<path d="M2173 2315 c-3 -9 -4 -17 -2 -18 2 -1 27 -13 54 -27 37 -18 55 -36
70 -65 19 -39 20 -57 17 -590 -1 -353 -6 -570 -13 -605 -8 -39 -20 -63 -44
-87 -41 -41 -79 -43 -153 -8 -69 32 -95 32 -121 -1 -46 -58 -18 -117 62 -133
191 -40 373 109 418 343 5 27 9 250 9 495 0 245 3 474 7 509 7 78 34 120 91
147 26 12 42 26 42 37 0 17 -16 18 -215 18 -185 0 -216 -2 -222 -15z"/>
</g>
</svg>
